<svg width="292" height="228" viewBox="0 0 292 228" fill="none" xmlns="http://www.w3.org/2000/svg">
<path d="M37.2616 163.84C36.9527 163.84 36.6629 163.883 36.3994 163.968C36.1546 164.047 35.9447 164.155 35.7777 164.288C35.6229 164.41 35.5062 164.547 35.4188 164.71C35.3471 164.842 35.314 164.973 35.314 165.124C35.314 165.251 35.3396 165.355 35.395 165.452C35.4738 165.591 35.5818 165.711 35.7266 165.821C35.8824 165.939 36.084 166.033 36.327 166.102C36.8883 166.261 37.6328 166.261 38.1803 166.104H38.1807C38.4194 166.034 38.6192 165.94 38.7758 165.821C38.9208 165.711 39.0296 165.591 39.1073 165.453C39.1631 165.356 39.1894 165.25 39.1894 165.124C39.1894 164.974 39.1559 164.842 39.0846 164.71C38.9972 164.548 38.8805 164.411 38.7279 164.29C38.5569 164.155 38.3488 164.046 38.1058 163.965C37.8531 163.882 37.5683 163.84 37.2616 163.84ZM37.2616 168.563C36.7076 168.563 36.1787 168.492 35.6895 168.354C35.1635 168.205 34.7002 167.98 34.3125 167.685C33.9165 167.385 33.5957 167.023 33.3606 166.609C33.104 166.158 32.9736 165.658 32.9736 165.124C32.9736 164.585 33.1032 164.072 33.3588 163.599C33.5982 163.155 33.9244 162.768 34.328 162.451C34.7103 162.148 35.1653 161.908 35.6772 161.742C36.6752 161.419 37.8578 161.42 38.8402 161.744C39.3456 161.911 39.7953 162.149 40.179 162.453C40.5801 162.77 40.9062 163.156 41.1449 163.599C41.4005 164.074 41.5298 164.587 41.5298 165.124C41.5298 165.656 41.3994 166.155 41.1431 166.608C40.9084 167.021 40.5884 167.383 40.1909 167.685C39.8032 167.979 39.3453 168.203 38.829 168.352C38.3452 168.492 37.8174 168.563 37.2616 168.563Z" fill="#4C82C3"/>
<path d="M50.2049 160.865C49.8097 160.865 49.4378 160.921 49.0987 161.03C48.7768 161.135 48.5003 161.278 48.2782 161.454C48.0669 161.62 47.9071 161.809 47.7868 162.032C47.6839 162.224 47.6335 162.423 47.6335 162.64C47.6335 162.834 47.6741 162.998 47.7623 163.152C47.8718 163.344 48.0223 163.512 48.2224 163.664C48.4309 163.822 48.6991 163.948 49.0191 164.039C49.7366 164.242 50.6755 164.243 51.3713 164.041L51.3735 164.04C51.6867 163.95 51.9527 163.823 52.163 163.664C52.3631 163.511 52.514 163.344 52.6231 163.152C52.7105 162.998 52.7519 162.834 52.7519 162.64C52.7519 162.422 52.7015 162.223 52.5979 162.031C52.4787 161.809 52.3189 161.621 52.109 161.456C51.8833 161.277 51.6089 161.133 51.2911 161.028C50.9638 160.92 50.5981 160.865 50.2049 160.865ZM50.2049 166.533C49.5605 166.533 48.9467 166.451 48.3808 166.29C47.7789 166.121 47.2486 165.864 46.8065 165.527C46.3558 165.185 45.9926 164.774 45.7269 164.307C45.4393 163.8 45.2931 163.239 45.2931 162.64C45.2931 162.036 45.4385 161.458 45.7258 160.923C45.998 160.418 46.3688 159.979 46.8278 159.617C47.2659 159.27 47.7872 158.996 48.3754 158.805C49.5256 158.432 50.8972 158.433 52.0265 158.806C52.6065 158.998 53.1217 159.272 53.5601 159.619C54.0184 159.981 54.3885 160.42 54.6592 160.922C54.9461 161.457 55.0919 162.034 55.0919 162.64C55.0919 163.238 54.9461 163.799 54.6588 164.306C54.3932 164.773 54.0303 165.184 53.5788 165.527C53.1375 165.862 52.6137 166.118 52.0222 166.289C51.4631 166.451 50.8519 166.533 50.2049 166.533Z" fill="#4C82C3"/>
<path d="M64.6055 157.796C64.1072 157.796 63.6364 157.866 63.2069 158.006C62.7929 158.141 62.4365 158.325 62.1474 158.554C61.8698 158.773 61.6578 159.024 61.4983 159.319C61.3554 159.585 61.2863 159.86 61.2863 160.161C61.2863 160.432 61.3464 160.671 61.4706 160.889C61.6182 161.149 61.8187 161.373 62.0855 161.576C62.3591 161.783 62.7072 161.948 63.1194 162.064C64.0183 162.32 65.197 162.32 66.0703 162.067L66.0718 162.066C66.4757 161.95 66.8213 161.784 67.0985 161.574C67.3638 161.372 67.565 161.148 67.7108 160.89C67.8354 160.671 67.8962 160.432 67.8962 160.161C67.8962 159.86 67.8268 159.585 67.6838 159.319C67.5251 159.024 67.3123 158.773 67.034 158.553C66.7446 158.324 66.3907 158.139 65.9828 158.004C65.5663 157.866 65.1019 157.796 64.6055 157.796ZM64.6055 164.597C63.8516 164.597 63.137 164.503 62.4804 164.316C61.7874 164.12 61.1776 163.824 60.6703 163.44C60.1516 163.046 59.7365 162.576 59.4352 162.044C59.1112 161.474 58.9459 160.839 58.9459 160.161C58.9459 159.473 59.1112 158.817 59.4373 158.211C59.7469 157.635 60.171 157.133 60.6966 156.717C61.2028 156.317 61.8036 156.002 62.4826 155.781C63.8146 155.348 65.409 155.349 66.7194 155.782C67.3879 156.004 67.9819 156.319 68.4859 156.717C69.0126 157.134 69.436 157.636 69.7448 158.211C70.071 158.817 70.2366 159.473 70.2366 160.161C70.2366 160.837 70.0721 161.47 69.7474 162.044C69.446 162.576 69.031 163.044 68.5136 163.438C68.0042 163.824 67.4016 164.119 66.7201 164.315C66.0725 164.503 65.3608 164.597 64.6055 164.597Z" fill="#4C82C3"/>
<path d="M72.5752 119.768C72.2227 120.119 71.687 120.209 71.2399 119.992C70.7924 119.776 70.5307 119.299 70.5872 118.806C70.742 117.453 70.3918 116.53 69.517 115.985C67.8995 114.98 64.6022 115.371 62.3162 116.839C61.4951 117.368 60.1454 118.467 60.3316 119.903C60.4144 120.544 59.9622 121.13 59.3214 121.213C58.6806 121.294 58.0934 120.845 58.0103 120.204C57.4354 115.76 55.0457 114.364 53.142 113.976C49.9992 113.335 46.2494 115.026 44.606 117.825C43.211 120.2 43.6603 122.925 45.8707 125.497C46.1389 125.81 46.2235 126.241 46.0932 126.631C45.9632 127.022 45.6371 127.315 45.235 127.403C36.9676 129.223 34.3745 133.114 34.7046 136.149C35.0945 139.735 39.7187 143.549 47.5202 143.549C47.8327 143.549 48.1322 143.673 48.3522 143.896C48.5718 144.118 48.6935 144.419 48.6902 144.731C48.673 146.293 49.187 147.518 49.8962 148.467H84.9563C90.0424 148.467 94.2036 144.305 94.2036 139.219V118.408C88.6412 113.861 79.5552 112.821 72.5752 119.768Z" fill="#4C82C3"/>
<path d="M32.3778 136.401C31.9652 132.608 34.5936 127.895 42.9963 125.549C41.1171 122.599 40.9512 119.427 42.5877 116.64C44.7423 112.972 49.4843 110.841 53.6095 111.683C56.2029 112.212 58.1833 113.847 59.3331 116.322C59.7961 115.796 60.371 115.307 61.0503 114.871C63.6988 113.168 67.9987 112.283 70.7534 113.998C71.7135 114.596 72.3748 115.456 72.7089 116.514C79.784 110.86 88.2832 111.589 94.2035 115.507V101.677C94.2035 96.5914 90.0422 92.4298 84.9561 92.4298H32.7435C27.6575 92.4298 23.4962 96.5914 23.4962 101.677V139.219C23.4962 144.305 27.6575 148.466 32.7435 148.466H47.172C46.7853 147.655 46.5179 146.789 46.4102 145.866C37.8289 145.501 32.8699 140.925 32.3778 136.401Z" fill="#4C82C3"/>
<path d="M98.5061 133.55C102.936 127.953 100.929 121.572 96.7831 117.569C95.9976 116.811 95.1311 116.121 94.2034 115.507V118.409C94.5338 118.679 94.8535 118.959 95.1577 119.253C98.438 122.421 100.639 127.875 96.0476 132.823C95.8316 133.055 95.7193 133.366 95.737 133.683C95.7542 133.999 95.8997 134.296 96.1394 134.504C99.6059 137.504 99.8042 143.298 96.6002 147.981C92.3871 154.139 82.4602 157.849 67.2325 149.792C67.0604 149.701 66.8725 149.656 66.6853 149.656C66.4348 149.656 66.1849 149.737 65.9772 149.895C62.5712 152.483 56.8962 152.873 52.7774 150.802C51.9282 150.375 50.765 149.628 49.8964 148.466H47.1719C48.0391 150.288 49.5734 151.81 51.7262 152.892C56.3508 155.219 62.6702 154.891 66.7768 152.193C73.1034 155.44 78.6024 156.765 83.2403 156.765C90.5033 156.764 95.6502 153.514 98.532 149.302C102.145 144.021 102.069 137.475 98.5061 133.55Z" fill="#4C82C3"/>
<path d="M138.191 109.725C138.569 109.887 138.851 110.246 138.902 110.655L140.158 120.901H144.585V108.848C144.585 108.488 144.752 108.148 145.039 107.928L147.114 106.339L140.955 104.509C140.49 104.371 140.16 103.958 140.129 103.474C140.098 102.989 140.371 102.536 140.815 102.34L146.675 99.7413L141.537 98.2361C141.153 98.1234 140.855 97.8218 140.747 97.4358C140.639 97.051 140.738 96.6374 141.008 96.3422L144.585 92.43H126.33C126.622 99.9836 131.204 106.718 138.191 109.725Z" fill="#FDBA11"/>
<path d="M150.362 98.4068C150.828 98.5439 151.16 98.9568 151.192 99.4421C151.224 99.9267 150.95 100.381 150.506 100.578L144.629 103.184L149.954 104.765C150.371 104.889 150.684 105.237 150.763 105.665C150.842 106.094 150.674 106.531 150.329 106.796L146.902 109.42V120.901H151.744L152.988 110.686C153.038 110.276 153.304 109.899 153.684 109.737C160.688 106.735 165.28 99.9958 165.572 92.43H147.725L143.971 96.5351L150.362 98.4068Z" fill="#FDBA11"/>
<path d="M152.92 128.177H138.982C138.342 128.177 137.824 127.658 137.824 127.018C137.824 126.378 138.342 125.86 138.982 125.86H152.92C153.56 125.86 154.078 126.378 154.078 127.018C154.078 127.658 153.56 128.177 152.92 128.177ZM152.92 132.656H138.982C138.342 132.656 137.824 132.138 137.824 131.498C137.824 130.858 138.342 130.339 138.982 130.339H152.92C153.56 130.339 154.078 130.858 154.078 131.498C154.078 132.138 153.56 132.656 152.92 132.656ZM152.92 137.136H138.982C138.342 137.136 137.824 136.618 137.824 135.977C137.824 135.338 138.342 134.819 138.982 134.819H152.92C153.56 134.819 154.078 135.338 154.078 135.977C154.078 136.618 153.56 137.136 152.92 137.136ZM148.441 141.615H143.461C142.821 141.615 142.303 141.097 142.303 140.457C142.303 139.817 142.821 139.298 143.461 139.298H148.441C149.081 139.298 149.599 139.817 149.599 140.457C149.599 141.097 149.081 141.615 148.441 141.615ZM172.144 92.43H167.89C167.604 100.701 162.722 108.099 155.212 111.591L153.919 122.2C153.848 122.781 153.355 123.218 152.769 123.218H139.132C138.547 123.218 138.054 122.782 137.983 122.201L136.681 111.585C129.163 108.072 124.298 100.682 124.012 92.43H119.932C114.846 92.43 110.685 96.5913 110.685 101.677V139.219C110.685 144.305 114.846 148.467 119.932 148.467H172.144C177.231 148.467 181.392 144.305 181.392 139.219V101.677C181.392 96.5913 177.231 92.43 172.144 92.43Z" fill="#FDBA11"/>
<path d="M24.7693 173.914H28.1011V193.217H24.7693V173.914ZM24.7693 173.914H28.1011V193.217H24.7693V173.914ZM26.399 170.528C26.0005 170.528 25.6293 170.48 25.2855 170.383C24.9413 170.287 24.6483 170.147 24.4075 169.966C24.1655 169.786 23.9755 169.575 23.8369 169.333C23.6979 169.091 23.6288 168.826 23.6288 168.536C23.6288 168.234 23.7008 167.951 23.8459 167.685C23.9906 167.42 24.1868 167.19 24.4345 166.997C24.6818 166.804 24.9745 166.653 25.3129 166.544C25.6502 166.436 26.0127 166.381 26.399 166.381C26.7856 166.381 27.1445 166.436 27.4765 166.544C27.8087 166.653 28.0982 166.804 28.3459 166.997C28.5932 167.19 28.7894 167.42 28.9341 167.685C29.0792 167.951 29.1515 168.234 29.1515 168.536C29.1515 168.826 29.0817 169.091 28.9435 169.333C28.8041 169.575 28.6144 169.786 28.3729 169.966C28.1313 170.147 27.8415 170.287 27.5035 170.383C27.1658 170.48 26.7975 170.528 26.399 170.528Z" fill="#4C82C3"/>
<path d="M48.2918 180.342H45.1227C44.9297 179.142 44.4891 178.145 43.8011 177.35C43.1128 176.557 42.0083 176.159 40.4873 176.159C38.4105 176.159 36.9258 177.175 36.033 179.205C35.4531 180.523 35.1636 182.149 35.1636 184.082C35.1636 186.028 35.5737 187.666 36.3948 188.996C37.2156 190.325 38.5073 190.99 40.2702 190.99C41.622 190.99 42.693 190.577 43.4843 189.749C44.2749 188.923 44.821 187.791 45.1227 186.354H48.2918C47.93 188.926 47.0242 190.806 45.5759 191.995C44.1273 193.184 42.274 193.778 40.0168 193.778C37.4813 193.778 35.4592 192.853 33.9501 190.999C32.441 189.146 31.6868 186.831 31.6868 184.054C31.6868 180.65 32.5137 178 34.1675 176.105C35.8214 174.21 37.9277 173.262 40.4873 173.262C42.6722 173.262 44.4498 173.793 45.82 174.855C47.1902 175.918 48.0142 177.747 48.2918 180.342Z" fill="#4C82C3"/>
<path d="M65.0418 183.403C65.0418 181.857 64.8182 180.53 64.3718 179.419C63.5266 177.282 61.9818 176.214 59.7361 176.214C57.4786 176.214 55.9334 177.343 55.1004 179.6C54.6536 180.807 54.4304 182.341 54.4304 184.199C54.4304 185.697 54.6536 186.97 55.1004 188.02C55.9453 190.024 57.4904 191.026 59.7361 191.026C61.2575 191.026 62.5214 190.39 63.5298 189.116C64.5378 187.842 65.0418 185.938 65.0418 183.403ZM51.2977 173.914H54.4668V176.485C55.1188 175.604 55.8308 174.922 56.6034 174.439C57.7018 173.715 58.9935 173.353 60.4788 173.353C62.6759 173.353 64.5407 174.195 66.0739 175.878C67.6068 177.563 68.3736 179.968 68.3736 183.095C68.3736 187.32 67.2691 190.338 65.0602 192.148C63.6594 193.295 62.0297 193.869 60.171 193.869C58.7098 193.869 57.4847 193.549 56.495 192.91C55.9155 192.547 55.2696 191.926 54.5572 191.044V200.95H51.2977V173.914Z" fill="#4C82C3"/>
<path d="M87.4594 180.342H84.2903C84.0973 179.142 83.6567 178.145 82.9687 177.35C82.2804 176.557 81.1759 176.159 79.6549 176.159C77.5781 176.159 76.0935 177.175 75.2007 179.205C74.6207 180.523 74.3313 182.149 74.3313 184.082C74.3313 186.028 74.7413 187.666 75.5625 188.996C76.3833 190.325 77.6749 190.99 79.4379 190.99C80.7897 190.99 81.8607 190.577 82.6519 189.749C83.4425 188.923 83.9886 187.791 84.2903 186.354H87.4594C87.0976 188.926 86.1918 190.806 84.7435 191.995C83.2949 193.184 81.4416 193.778 79.1844 193.778C76.6489 193.778 74.6268 192.853 73.1177 190.999C71.6086 189.146 70.8544 186.831 70.8544 184.054C70.8544 180.65 71.6813 178 73.3351 176.105C74.989 174.21 77.0953 173.262 79.6549 173.262C81.8398 173.262 83.6175 173.793 84.9876 174.855C86.3578 175.918 87.1818 177.747 87.4594 180.342Z" fill="#4C82C3"/>
<path d="M93.3808 193.308C92.9823 193.308 92.6111 193.26 92.2673 193.163C91.9231 193.067 91.6301 192.927 91.3893 192.746C91.1473 192.566 90.9569 192.355 90.8187 192.113C90.6797 191.871 90.6102 191.606 90.6102 191.316C90.6102 191.014 90.6826 190.731 90.8277 190.465C90.9724 190.2 91.1686 189.97 91.4163 189.777C91.6632 189.584 91.9563 189.432 92.2943 189.324C92.632 189.216 92.9945 189.161 93.3808 189.161C93.7667 189.161 94.1263 189.216 94.4583 189.324C94.7902 189.432 95.08 189.584 95.3277 189.777C95.575 189.97 95.7708 190.2 95.9159 190.465C96.0606 190.731 96.1333 191.014 96.1333 191.316C96.1333 191.606 96.0635 191.871 95.9253 192.113C95.7859 192.355 95.5959 192.566 95.3547 192.746C95.1127 192.927 94.8233 193.067 94.4853 193.163C94.1476 193.26 93.7793 193.308 93.3808 193.308Z" fill="#4C82C3"/>
<path d="M102.543 167.902C103.304 166.791 104.771 166.236 106.944 166.236C107.149 166.236 107.36 166.243 107.577 166.254C107.795 166.266 108.042 166.284 108.32 166.308V169.278C107.982 169.255 107.737 169.239 107.586 169.233C107.435 169.227 107.294 169.224 107.161 169.224C106.171 169.224 105.579 169.481 105.386 169.993C105.193 170.507 105.097 171.813 105.097 173.914H108.32V176.485H105.06V193.217H101.837V176.485H99.1389V173.914H101.837V170.872C101.885 169.52 102.12 168.53 102.543 167.902Z" fill="#4C82C3"/>
<path d="M124.672 183.204C124.672 181.393 124.381 179.92 123.801 178.785C122.882 176.999 121.298 176.105 119.049 176.105C117.054 176.105 115.603 176.866 114.696 178.387C113.79 179.907 113.336 181.743 113.336 183.891C113.336 185.956 113.79 187.677 114.696 189.053C115.603 190.429 117.042 191.117 119.013 191.117C121.177 191.117 122.662 190.299 123.466 188.663C124.27 187.027 124.672 185.207 124.672 183.204ZM128.076 183.113C128.076 186.239 127.316 188.823 125.794 190.863C124.273 192.903 121.913 193.924 118.714 193.924C116.046 193.924 113.927 193.021 112.358 191.216C110.789 189.412 110.004 186.988 110.004 183.946C110.004 180.686 110.831 178.091 112.485 176.159C114.139 174.228 116.36 173.262 119.149 173.262C121.648 173.262 123.76 174.095 125.487 175.761C127.213 177.427 128.076 179.877 128.076 183.113Z" fill="#4C82C3"/>
<path d="M135.025 173.823V186.685C135.025 187.674 135.182 188.482 135.496 189.108C136.076 190.266 137.156 190.845 138.737 190.845C141.007 190.845 142.552 189.832 143.373 187.806C143.82 186.721 144.043 185.232 144.043 183.338V173.823H147.302V193.217H144.224L144.26 190.356C143.838 191.093 143.312 191.715 142.685 192.222C141.441 193.235 139.932 193.743 138.158 193.743C135.393 193.743 133.51 192.819 132.508 190.972C131.965 189.982 131.693 188.661 131.693 187.007V173.823H135.025Z" fill="#4C82C3"/>
<path d="M152.205 173.823H155.302V176.576C156.22 175.441 157.193 174.627 158.221 174.131C159.248 173.636 160.391 173.389 161.649 173.389C164.404 173.389 166.267 174.348 167.234 176.268C167.765 177.319 168.031 178.821 168.031 180.777V193.218H164.7V180.995C164.7 179.811 164.524 178.858 164.174 178.133C163.595 176.926 162.545 176.322 161.024 176.322C160.251 176.322 159.617 176.401 159.122 176.558C158.229 176.823 157.444 177.354 156.768 178.152C156.225 178.792 155.872 179.452 155.709 180.134C155.546 180.817 155.465 181.791 155.465 183.059V193.218H152.205V173.823Z" fill="#4C82C3"/>
<path d="M180.454 191.062C181.963 191.062 183.203 190.414 184.175 189.116C185.147 187.819 185.633 185.956 185.633 183.529C185.633 181.079 185.132 179.265 184.13 178.088C183.127 176.911 181.891 176.322 180.418 176.322C178.776 176.322 177.445 176.951 176.425 178.206C175.404 179.461 174.895 181.309 174.895 183.747C174.895 185.823 175.335 187.562 176.217 188.962C177.098 190.362 178.51 191.062 180.454 191.062ZM183.532 174.421C184.111 174.783 184.769 175.417 185.506 176.322V166.526H188.639V193.217H185.705V190.52C184.945 191.715 184.045 192.577 183.007 193.108C181.969 193.639 180.78 193.906 179.44 193.906C177.279 193.906 175.407 192.997 173.826 191.18C172.244 189.363 171.454 186.946 171.454 183.927C171.454 181.102 172.175 178.656 173.618 176.585C175.06 174.514 177.122 173.479 179.802 173.479C181.286 173.479 182.53 173.793 183.532 174.421Z" fill="#4C82C3"/>
<path d="M199.245 191.099C200.392 191.099 201.502 190.833 202.577 190.302C204.388 189.421 205.294 187.978 205.294 185.974V183.348C204.895 183.601 204.382 183.813 203.755 183.982C203.126 184.151 202.51 184.271 201.907 184.344L199.933 184.598C198.751 184.755 197.863 185.002 197.271 185.34C196.27 185.908 195.769 186.813 195.769 188.056C195.769 188.998 196.113 189.741 196.801 190.283C197.489 190.827 198.303 191.099 199.245 191.099ZM203.664 181.465C204.412 181.368 204.913 181.055 205.166 180.523C205.312 180.234 205.384 179.817 205.384 179.274C205.384 178.164 204.989 177.358 204.198 176.856C203.407 176.355 202.275 176.105 200.803 176.105C199.1 176.105 197.893 176.564 197.181 177.481C196.783 177.988 196.523 178.743 196.403 179.744H193.36C193.421 177.354 194.196 175.692 195.687 174.756C197.178 173.821 198.907 173.353 200.875 173.353C203.157 173.353 205.01 173.787 206.434 174.657C207.847 175.526 208.553 176.878 208.553 178.712V189.886C208.553 190.224 208.622 190.495 208.761 190.7C208.9 190.906 209.192 191.008 209.639 191.008C209.784 191.008 209.947 190.999 210.128 190.981C210.309 190.962 210.502 190.936 210.708 190.899V193.308C210.2 193.452 209.814 193.543 209.549 193.58C209.283 193.615 208.922 193.634 208.463 193.634C207.34 193.634 206.525 193.235 206.018 192.438C205.753 192.016 205.566 191.419 205.457 190.646C204.793 191.515 203.838 192.27 202.595 192.91C201.352 193.549 199.981 193.869 198.485 193.869C196.686 193.869 195.216 193.323 194.076 192.231C192.935 191.138 192.365 189.771 192.365 188.128C192.365 186.33 192.926 184.936 194.049 183.946C195.171 182.956 196.644 182.347 198.467 182.117L203.664 181.465Z" fill="#4C82C3"/>
<path d="M214.546 168.41H217.843V173.823H220.939V176.485H217.843V189.143C217.843 189.819 218.072 190.272 218.53 190.501C218.784 190.634 219.206 190.7 219.798 190.7C219.955 190.7 220.124 190.697 220.305 190.691C220.486 190.685 220.697 190.67 220.939 190.646V193.217C220.564 193.326 220.175 193.404 219.771 193.453C219.367 193.501 218.929 193.525 218.458 193.525C216.937 193.525 215.905 193.136 215.362 192.357C214.818 191.578 214.546 190.568 214.546 189.324V176.485H211.921V173.823H214.546V168.41Z" fill="#4C82C3"/>
<path d="M224.198 173.914H227.53V193.217H224.198V173.914ZM224.198 173.914H227.53V193.217H224.198V173.914ZM225.828 170.528C225.43 170.528 225.058 170.48 224.715 170.383C224.37 170.287 224.078 170.147 223.836 169.966C223.595 169.786 223.405 169.575 223.266 169.333C223.127 169.091 223.057 168.826 223.057 168.536C223.057 168.234 223.131 167.951 223.275 167.685C223.42 167.42 223.616 167.19 223.864 166.997C224.111 166.804 224.404 166.653 224.742 166.544C225.079 166.436 225.442 166.381 225.828 166.381C226.215 166.381 226.574 166.436 226.905 166.544C227.238 166.653 227.527 166.804 227.775 166.997C228.022 167.19 228.218 167.42 228.363 167.685C228.508 167.951 228.581 168.234 228.581 168.536C228.581 168.826 228.511 169.091 228.372 169.333C228.233 169.575 228.043 169.786 227.802 169.966C227.56 170.147 227.271 170.287 226.933 170.383C226.594 170.48 226.226 170.528 225.828 170.528Z" fill="#4C82C3"/>
<path d="M245.783 183.204C245.783 181.393 245.493 179.92 244.913 178.785C243.994 176.999 242.41 176.105 240.161 176.105C238.166 176.105 236.714 176.866 235.808 178.387C234.901 179.907 234.448 181.743 234.448 183.891C234.448 185.956 234.901 187.677 235.808 189.053C236.714 190.429 238.154 191.117 240.124 191.117C242.288 191.117 243.773 190.299 244.577 188.663C245.382 187.027 245.783 185.207 245.783 183.204ZM249.188 183.113C249.188 186.239 248.427 188.823 246.906 190.863C245.385 192.903 243.025 193.924 239.826 193.924C237.157 193.924 235.039 193.021 233.47 191.216C231.901 189.412 231.116 186.988 231.116 183.946C231.116 180.686 231.942 178.091 233.597 176.159C235.25 174.228 237.472 173.262 240.261 173.262C242.76 173.262 244.871 174.095 246.599 175.761C248.325 177.427 249.188 179.877 249.188 183.113Z" fill="#4C82C3"/>
<path d="M252.877 173.823H255.974V176.576C256.893 175.441 257.866 174.627 258.894 174.131C259.921 173.636 261.063 173.389 262.321 173.389C265.077 173.389 266.939 174.348 267.906 176.268C268.438 177.319 268.704 178.821 268.704 180.777V193.218H265.372V180.995C265.372 179.811 265.197 178.858 264.847 178.133C264.267 176.926 263.217 176.322 261.696 176.322C260.923 176.322 260.29 176.401 259.794 176.558C258.901 176.823 258.117 177.354 257.441 178.152C256.897 178.792 256.544 179.452 256.381 180.134C256.218 180.817 256.137 181.791 256.137 183.059V193.218H252.877V173.823Z" fill="#4C82C3"/>
<path d="M124.767 83.7778C124.613 83.7778 124.458 83.748 124.307 83.6857L111.765 78.4905C111.302 78.2986 111.022 77.8504 111.022 77.3778C111.022 77.2248 111.051 77.0685 111.114 76.918C111.368 76.3032 112.072 76.013 112.687 76.2664L125.228 81.4616C125.692 81.6535 125.972 82.1017 125.971 82.5744C125.971 82.7274 125.942 82.8836 125.88 83.0341C125.688 83.4978 125.239 83.7778 124.767 83.7778Z" fill="#FDBA11"/>
<path d="M129.737 76.3398C129.43 76.3398 129.121 76.2225 128.886 75.9874L119.432 66.5338C119.197 66.2987 119.08 65.9913 119.08 65.6828C119.08 65.3746 119.197 65.0672 119.432 64.8317C119.902 64.3616 120.665 64.3616 121.134 64.8317L130.588 74.2853C130.824 74.5208 130.941 74.8282 130.941 75.1364C130.941 75.4449 130.824 75.7523 130.588 75.9874C130.354 76.2225 130.045 76.3398 129.737 76.3398Z" fill="#FDBA11"/>
<path d="M137.175 71.3716C136.703 71.3716 136.255 71.0915 136.063 70.6278L130.985 58.3695C130.923 58.219 130.894 58.0627 130.894 57.9097C130.893 57.4367 131.173 56.9889 131.637 56.797C132.25 56.5417 132.955 56.8333 133.209 57.4486L138.287 69.7069C138.349 69.8574 138.379 70.0137 138.379 70.1667C138.379 70.6393 138.099 71.0872 137.635 71.2794C137.485 71.3417 137.329 71.3716 137.175 71.3716Z" fill="#FDBA11"/>
<path d="M145.948 69.6255C145.283 69.6255 144.744 69.0869 144.744 68.422V55.1672C144.744 54.5022 145.283 53.9637 145.948 53.9637C146.613 53.9637 147.152 54.5022 147.152 55.1672V68.422C147.152 69.0869 146.613 69.6255 145.948 69.6255Z" fill="#FDBA11"/>
<path d="M154.72 71.3716C154.567 71.3716 154.411 71.3417 154.26 71.2794C153.797 71.0872 153.517 70.6393 153.517 70.1667C153.517 70.0137 153.546 69.8574 153.609 69.7069L158.718 57.373C158.972 56.7595 159.676 56.4661 160.29 56.7214C160.754 56.9133 161.034 57.3611 161.034 57.8341C161.034 57.9871 161.004 58.1434 160.942 58.2935L155.833 70.6278C155.641 71.0915 155.193 71.3716 154.72 71.3716Z" fill="#FDBA11"/>
<path d="M162.158 76.3398C161.85 76.3398 161.542 76.2225 161.307 75.9874C161.072 75.7523 160.955 75.4449 160.955 75.1364C160.955 74.8282 161.072 74.5208 161.307 74.2853L170.87 64.723C171.34 64.2525 172.102 64.2525 172.572 64.723C172.807 64.9581 172.924 65.2655 172.924 65.574C172.924 65.8822 172.807 66.19 172.572 66.4251L163.009 75.9874C162.774 76.2225 162.466 76.3398 162.158 76.3398Z" fill="#FDBA11"/>
<path d="M167.129 83.7788C166.656 83.7788 166.208 83.4987 166.016 83.035C165.954 82.8846 165.924 82.7283 165.924 82.5753C165.924 82.1026 166.204 81.6544 166.668 81.4626L179.397 76.1893C180.014 75.9344 180.715 76.2267 180.97 76.8409C181.032 76.9914 181.062 77.1469 181.062 77.3006C181.062 77.7733 180.782 78.2215 180.318 78.4134L167.589 83.6866C167.438 83.7489 167.282 83.7788 167.129 83.7788Z" fill="#FDBA11"/>
<path d="M259.332 92.4369H237.792C239.004 93.5345 240.333 94.5241 241.636 95.3478C241.639 95.3493 241.713 95.3968 241.717 95.3993C251.009 101.406 255.36 108.086 254.647 115.253C253.813 123.659 246.115 132.391 231.769 141.21C226.94 144.178 222.133 146.655 218.331 148.473H259.332C264.418 148.473 268.579 144.312 268.579 139.226V101.684C268.579 96.5981 264.418 92.4369 259.332 92.4369Z" fill="#B22D1B"/>
<path d="M252.319 115.02C252.936 108.797 248.942 102.856 240.447 97.3639C239.244 96.6036 236.686 94.8436 234.5 92.4366H207.119C202.033 92.4366 197.872 96.5979 197.872 101.684V139.226C197.872 144.312 202.033 148.473 207.119 148.473H212.714C222.015 144.381 250.781 130.521 252.319 115.02Z" fill="#B22D1B"/>
<path d="M234.662 75.9783C234.651 75.9819 234.644 75.9909 234.634 75.9949C234.504 76.0435 234.388 76.1133 234.286 76.2012C234.273 76.212 234.26 76.221 234.248 76.2321C234.138 76.3344 234.049 76.4542 233.984 76.5918C233.984 76.5925 233.983 76.5932 233.983 76.5943C233.982 76.5964 233.982 76.599 233.981 76.6015C233.946 76.6774 233.913 76.7541 233.896 76.8376C233.882 76.9003 233.884 76.9629 233.882 77.0256C233.881 77.0385 233.879 77.0508 233.879 77.0641C233.876 77.2174 233.9 77.3665 233.956 77.5072C233.956 77.5083 233.956 77.509 233.956 77.5101L236.135 83.0815H227.729L229.908 77.5101C229.91 77.5033 229.909 77.4957 229.911 77.4892C229.96 77.3596 229.982 77.2228 229.982 77.0828C229.982 77.0533 229.978 77.0256 229.976 76.996C229.972 76.9424 229.975 76.8888 229.964 76.8351C229.948 76.7649 229.918 76.7008 229.891 76.636C229.886 76.6224 229.887 76.6072 229.881 76.5943C229.879 76.5885 229.873 76.5853 229.871 76.5795C229.808 76.4496 229.723 76.3358 229.62 76.2375C229.603 76.222 229.586 76.2102 229.568 76.1954C229.468 76.1108 229.356 76.0428 229.231 75.9952C229.22 75.9913 229.213 75.9819 229.202 75.9783C219.466 72.5968 211.419 61.0952 210.882 49.7952C210.615 44.1604 212.379 39.1838 215.985 35.4024C219.893 31.3045 225.55 29.0473 231.952 29.0473C238.314 29.0473 243.971 31.3045 247.879 35.4024C251.484 39.1838 253.249 44.1604 252.982 49.7952C252.445 61.0952 244.398 72.5968 234.662 75.9783ZM244.903 78.7258C245.131 79.164 244.908 79.4721 244.682 79.655C243.905 80.2818 241.469 80.5924 237.594 77.6664C242.053 76.7988 244.392 77.7394 244.903 78.7258ZM219.179 79.6608C218.953 79.4797 218.731 79.1704 218.957 78.7327C219.326 78.0188 220.654 77.3272 223.049 77.3272C223.963 77.3272 225.033 77.4277 226.265 77.6664C222.393 80.5924 219.958 80.289 219.179 79.6608ZM255.321 49.9093C255.62 43.6194 253.633 38.0455 249.575 33.7903C245.22 29.2244 238.962 26.7094 231.913 26.7094C224.905 26.7094 218.648 29.2244 214.293 33.7903C210.235 38.0455 208.247 43.6194 208.547 49.9093C209.009 59.6609 214.705 69.5498 222.377 74.9995C219.359 75.1446 217.592 76.2847 216.881 77.6588C216.189 78.9937 216.525 80.532 217.715 81.4885C218.403 82.0411 219.403 82.4068 220.665 82.4068C222.17 82.4068 224.05 81.8805 226.215 80.5359L224.927 83.8281C224.786 84.1888 224.833 84.5953 225.05 84.9142C225.268 85.2336 225.63 85.4247 226.017 85.4247H230.852C231.147 87.732 232.398 90.1123 234.501 92.4382H237.798C235.88 90.7077 233.686 88.1902 233.211 85.4247H237.851C238.237 85.4247 238.599 85.2336 238.817 84.9142C239.035 84.5953 239.081 84.1888 238.94 83.8281L237.654 80.5377C239.814 81.8769 241.691 82.4018 243.195 82.4018C244.459 82.4018 245.462 82.0353 246.151 81.4802C247.341 80.5237 247.675 78.9847 246.983 77.6505C246.27 76.2782 244.507 75.1402 241.497 74.9952C249.166 69.5444 254.858 59.6584 255.321 49.9093Z" fill="#B22D1B"/>
</svg>
